<?xml version="1.0" standalone="no"?>
<!DOCTYPE svg PUBLIC "-//W3C//DTD SVG 20010904//EN"
 "http://www.w3.org/TR/2001/REC-SVG-20010904/DTD/svg10.dtd">
<svg version="1.0" xmlns="http://www.w3.org/2000/svg"
 width="1080.000000pt" height="1920.000000pt" viewBox="0 0 1080.000000 1920.000000"
 preserveAspectRatio="xMidYMid meet">

<g transform="translate(0.000000,1920.000000) scale(0.100000,-0.100000)"
fill="#000000" stroke="none">
<path d="M5240 12209 c-322 -25 -633 -148 -786 -311 -58 -61 -79 -101 -108
-201 -46 -157 -66 -336 -66 -582 0 -121 -3 -243 -6 -272 l-7 -52 -38 19 c-58
30 -111 26 -153 -10 -48 -43 -68 -99 -73 -210 -4 -79 0 -112 20 -191 37 -141
98 -259 180 -346 66 -69 69 -74 78 -140 25 -190 78 -319 183 -449 115 -143
321 -323 518 -452 l96 -63 8 -207 c5 -114 9 -222 9 -240 l0 -33 -235 -98
c-845 -352 -1554 -685 -1665 -782 -88 -77 -39 -142 141 -188 112 -29 590 -130
919 -195 552 -109 554 -109 990 -132 110 -5 146 -3 235 14 58 12 260 48 450
81 603 105 1458 279 1656 336 154 45 168 124 37 209 -38 24 -90 54 -116 67
-26 13 -47 27 -47 32 0 23 -971 457 -1461 654 l-137 54 -6 137 c-3 75 -9 189
-12 253 l-6 116 38 24 c60 37 220 167 312 254 211 199 297 357 331 606 9 63
12 69 65 119 141 133 234 371 223 567 -6 101 -27 161 -72 206 -36 36 -102 37
-161 3 l-41 -23 -6 180 c-4 99 -7 223 -7 276 0 111 -30 329 -60 439 -50 180
-123 262 -340 380 -226 122 -549 178 -880 151z m-230 -159 c0 -5 -7 -10 -16
-10 -8 0 -12 5 -9 10 3 6 10 10 16 10 5 0 9 -4 9 -10z m-51 -26 c-6 -8 -21
-13 -33 -13 -20 2 -20 2 2 6 12 2 22 11 22 19 0 8 5 12 10 9 8 -5 7 -11 -1
-21z m96 16 c-3 -5 -14 -10 -23 -11 -14 0 -13 -2 3 -9 23 -10 5 -13 -20 -3
-15 5 -14 8 6 19 29 16 42 18 34 4z m60 -7 c11 0 61 -6 110 -13 98 -14 218 -9
400 15 186 25 213 22 318 -32 185 -95 322 -282 380 -516 11 -42 30 -84 50
-110 18 -24 47 -84 64 -133 63 -180 63 -179 63 -582 l0 -371 -51 -143 c-28
-79 -63 -191 -78 -249 -15 -58 -33 -114 -39 -125 -10 -17 -11 -16 -12 11 0 28
-3 25 -35 -31 -53 -94 -113 -154 -196 -198 -70 -37 -78 -44 -123 -120 -27 -45
-67 -116 -88 -158 -21 -43 -39 -78 -41 -78 -2 0 -1 15 1 33 l5 32 -41 -37
c-23 -21 -61 -49 -84 -64 -24 -14 -61 -43 -82 -63 -23 -21 -36 -29 -33 -18 4
9 5 17 2 17 -2 0 -44 -14 -93 -30 -50 -16 -101 -30 -113 -30 -13 0 -69 16
-124 36 -55 19 -108 37 -117 38 -10 1 -28 11 -40 23 -13 11 -43 34 -68 50 -25
17 -56 43 -69 57 -28 30 -43 34 -35 9 3 -10 -9 9 -28 42 -18 33 -43 74 -54 90
-12 17 -33 53 -47 82 -23 45 -34 55 -94 84 -74 36 -161 116 -192 177 -20 41
-63 255 -86 431 -32 244 -29 514 7 752 l11 77 146 35 c185 45 239 50 368 36
74 -8 108 -8 116 0 5 5 12 46 15 90 l4 79 -97 7 c-233 18 -410 -26 -495 -122
-44 -50 -45 -49 -29 17 7 25 12 52 13 60 2 8 17 62 35 120 40 126 96 248 159
344 43 65 180 213 242 261 70 55 106 81 124 92 13 7 15 12 7 13 -11 0 -11 3
-1 15 7 9 16 12 19 7 3 -4 15 -8 26 -9z m-219 -25 c4 -7 3 -8 -5 -4 -6 4 -14
0 -18 -11 -3 -10 -14 -26 -25 -36 -15 -15 -18 -16 -18 -2 0 13 -4 14 -22 5
-21 -10 -21 -9 2 9 14 11 30 21 35 21 6 0 3 -5 -5 -10 -13 -8 -12 -10 3 -10 9
0 17 6 17 13 0 11 19 37 26 37 2 0 6 -5 10 -12z m104 -2 c0 -11 -19 -15 -25
-6 -3 5 1 10 9 10 9 0 16 -2 16 -4z m0 -31 c-7 -8 -17 -15 -23 -15 -6 0 -2 7
9 15 25 19 30 19 14 0z m-229 -34 c-11 -7 -10 -10 5 -13 17 -3 17 -4 -2 -10
-20 -5 -23 2 -15 30 1 1 7 2 14 2 8 0 8 -3 -2 -9z m93 -12 c-29 -12 -36 -10
-22 5 7 7 19 11 27 8 11 -4 10 -7 -5 -13z m-24 -29 c0 -5 -4 -10 -10 -10 -5 0
-10 5 -10 10 0 6 5 10 10 10 6 0 10 -4 10 -10z m-114 -12 c4 -7 3 -8 -4 -4 -7
4 -12 2 -12 -5 0 -7 -3 -10 -6 -6 -6 5 3 27 11 27 2 0 7 -5 11 -12z m124 -22
c0 -3 -4 -8 -10 -11 -5 -3 -10 -1 -10 4 0 6 5 11 10 11 6 0 10 -2 10 -4z
m-163 -28 c0 -13 -1 -17 -4 -10 -4 10 -10 9 -27 -5 -17 -14 -16 -12 3 10 14
15 25 27 26 27 0 0 1 -10 2 -22z m20 -30 c-3 -8 -6 -5 -6 6 -1 11 2 17 5 13 3
-3 4 -12 1 -19z m-1 -45 c-1 -1 -12 0 -25 4 -15 4 -19 8 -10 13 10 7 42 -10
35 -17z m-71 -23 c-3 -5 -12 -10 -18 -10 -7 0 -6 4 3 10 19 12 23 12 15 0z
m-40 -21 c-4 -5 -12 -9 -18 -8 -9 0 -8 2 1 6 6 2 9 10 6 15 -4 7 -2 8 5 4 6
-4 9 -12 6 -17z m41 -17 c0 -13 -8 -18 -28 -18 -15 0 -25 3 -22 7 2 5 12 5 21
2 10 -4 14 -2 10 4 -4 6 -1 14 5 16 7 3 13 6 13 6 1 1 1 -7 1 -17z m-93 -65
c3 -8 -1 -14 -8 -14 -7 0 -11 6 -8 14 3 7 6 13 8 13 2 0 5 -6 8 -13z m-22 -56
c-8 -5 -11 -15 -8 -23 3 -8 -1 -15 -9 -15 -7 0 -12 3 -10 6 2 3 6 14 9 24 4 9
12 17 19 17 10 0 9 -3 -1 -9z m-97 -236 c-4 -8 -11 -15 -16 -15 -6 0 -5 6 2
15 7 8 14 15 16 15 2 0 1 -7 -2 -15z m2276 -555 c11 -6 24 -19 30 -30 9 -17 7
-18 -23 -13 -43 7 -82 -13 -129 -65 l-36 -40 -6 37 c-12 71 -9 77 42 99 52 24
93 27 122 12z m11 -144 c13 -9 16 -16 10 -21 -6 -3 -11 -1 -11 5 0 6 -5 8 -12
4 -7 -4 -8 -3 -4 4 4 7 2 12 -3 12 -6 0 -10 17 -9 38 1 36 1 36 5 5 2 -18 13
-39 24 -47z m18 48 c4 3 13 1 21 -4 11 -7 11 -11 1 -23 -7 -9 -8 -18 -2 -21 5
-3 12 0 14 6 4 9 6 10 6 1 2 -22 -15 -22 -43 0 -20 17 -25 27 -20 42 5 11 9
14 12 7 2 -7 7 -10 11 -8z m-69 -3 c0 -5 -10 -11 -22 -14 -22 -6 -22 -6 -4 8
23 17 26 18 26 6z m-25 -41 c-3 -5 0 -10 7 -11 10 0 10 -2 1 -6 -8 -3 -11 -15
-8 -31 5 -24 4 -25 -4 -6 -5 12 -8 30 -6 40 5 25 4 24 11 24 3 0 2 -4 -1 -10z
m-44 -14 c-6 -7 -9 -22 -5 -32 4 -14 3 -16 -4 -5 -10 14 -32 7 -32 -10 0 -6 4
-8 8 -5 5 3 9 -2 9 -10 0 -13 -2 -13 -16 0 -13 14 -12 19 14 46 29 30 47 42
26 16z m160 -96 c24 0 25 -25 3 -123 -25 -113 -100 -261 -168 -332 l-57 -60 5
53 c4 40 13 62 40 95 34 42 72 108 78 137 1 8 -4 35 -11 58 -12 35 -12 47 -3
60 7 10 18 29 24 43 6 14 23 34 38 44 17 11 26 26 25 39 -2 13 -1 15 2 4 2
-10 13 -18 24 -18z m-196 10 c3 -5 1 -10 -4 -10 -6 0 -11 5 -11 10 0 6 2 10 4
10 3 0 8 -4 11 -10z m69 -56 c3 -8 2 -12 -4 -9 -6 3 -10 10 -10 16 0 14 7 11
14 -7z m-24 -14 c6 -11 7 -20 2 -20 -6 0 -12 9 -15 20 -3 11 -3 20 -1 20 2 0
8 -9 14 -20z m-24 -12 c4 -7 3 -8 -4 -4 -7 4 -12 2 -12 -5 0 -7 -3 -10 -6 -6
-6 5 3 27 11 27 2 0 7 -5 11 -12z m18 -26 c3 -5 -1 -9 -9 -9 -8 0 -12 4 -9 9
3 4 7 8 9 8 2 0 6 -4 9 -8z m-40 -48 c3 -8 2 -12 -4 -9 -6 3 -10 10 -10 16 0
14 7 11 14 -7z m59 -40 c15 -30 14 -34 -11 -82 -15 -27 -35 -60 -44 -73 l-17
-24 0 27 c-1 16 10 39 25 55 20 22 24 34 20 58 -14 67 -14 72 -1 72 7 0 20
-15 28 -33z m-54 -66 c-15 -27 -19 -22 -17 23 1 39 2 40 14 18 8 -16 9 -30 3
-41z m-721 -1791 c6 -7 93 -47 192 -87 107 -44 180 -80 180 -88 0 -24 -183
-196 -248 -234 -93 -53 -258 -105 -384 -119 -218 -25 -423 36 -560 166 -67 64
-119 148 -93 150 6 0 107 49 225 107 201 100 254 128 450 235 41 22 107 57
145 78 l70 37 6 -116 c3 -63 11 -121 17 -129z"/>
<path d="M5824 11234 c-19 -5 -20 -10 -16 -87 2 -45 7 -85 11 -88 3 -4 40 -2
81 3 102 12 179 3 348 -38 79 -20 147 -34 151 -32 14 5 -26 81 -66 127 -42 49
-90 76 -175 96 -62 15 -293 28 -334 19z"/>
<path d="M5721 11223 c-23 -5 -24 -6 -18 -84 4 -44 8 -83 11 -87 2 -4 23 -6
45 -4 40 4 41 5 41 41 0 20 -3 60 -6 89 -7 55 -9 57 -73 45z"/>
<path d="M5124 11183 c1 -21 -3 -59 -7 -84 -8 -45 -7 -47 19 -53 38 -10 45 2
52 80 4 57 2 69 -13 81 -34 24 -51 17 -51 -24z"/>
<path d="M5641 11186 c-24 -26 -38 -92 -23 -114 5 -7 26 -17 47 -22 l37 -8 -6
30 c-3 17 -6 55 -6 84 0 61 -13 69 -49 30z"/>
<path d="M5200 11143 c0 -34 -3 -68 -6 -77 -8 -22 20 -21 41 1 22 22 14 88
-14 117 l-21 20 0 -61z"/>
<path d="M5029 10880 c82 -43 116 -71 138 -114 15 -30 15 -30 -28 7 -102 87
-284 117 -438 71 -59 -17 -81 -44 -81 -99 0 -109 39 -162 142 -196 66 -22 90
-24 253 -24 227 0 235 3 224 92 -19 158 -73 237 -193 282 -89 33 -98 24 -17
-19z m-180 -73 c-67 -57 -65 -140 5 -206 36 -34 109 -40 163 -13 63 33 85 94
58 165 -12 30 16 19 57 -23 46 -49 80 -113 76 -143 -4 -31 -63 -39 -233 -34
-243 9 -314 48 -317 178 -1 27 3 54 8 59 15 15 115 39 164 39 l45 0 -26 -22z"/>
<path d="M5835 10906 c-132 -42 -196 -127 -215 -288 -10 -87 1 -92 195 -96
226 -5 353 29 398 106 27 46 34 144 13 176 -23 36 -110 60 -216 60 -107 1
-205 -29 -279 -85 -49 -37 -51 -38 -37 -12 22 43 65 78 141 117 71 36 71 45 0
22z m319 -97 c47 -16 60 -50 46 -113 -18 -82 -66 -116 -187 -135 -79 -12 -256
-14 -318 -3 -49 9 -56 32 -26 91 21 41 41 61 41 41 0 -33 36 -83 73 -102 99
-50 217 16 217 122 0 37 -23 85 -45 93 -8 4 -15 12 -15 18 0 16 160 6 214 -12z"/>
<path d="M5240 10125 c-88 -20 -114 -47 -114 -119 0 -31 6 -61 13 -70 8 -9 12
-18 10 -19 -2 -2 -42 -14 -89 -26 -122 -33 -293 -98 -308 -119 -17 -22 -7 -92
19 -143 32 -64 77 -96 57 -41 -16 41 -2 97 29 122 56 44 124 55 338 54 110 0
214 0 230 0 302 4 444 -1 497 -17 80 -24 109 -52 115 -110 4 -30 1 -52 -7 -62
-17 -20 4 -20 25 1 40 41 75 157 56 192 -11 21 -200 95 -326 127 -38 10 -72
20 -74 21 -2 2 2 11 9 20 18 21 18 106 0 139 -22 41 -92 57 -265 61 -107 3
-169 -1 -215 -11z m298 -26 c53 -6 109 -18 124 -25 29 -15 42 -46 36 -83 -4
-27 -20 -32 -24 -8 -1 11 -4 21 -7 23 -25 26 -459 21 -491 -5 -14 -12 -16 -10
-16 11 0 57 45 77 200 92 71 6 83 6 178 -5z"/>
<path d="M4973 9732 c-47 -9 -83 -21 -83 -28 0 -21 78 -110 121 -138 96 -64
239 -92 432 -83 72 3 157 13 187 21 70 20 131 47 125 56 -7 11 98 106 126 114
46 14 79 28 79 36 0 5 -21 10 -47 13 -27 2 -75 10 -108 17 -68 14 -324 9 -365
-7 -17 -7 -33 -7 -50 0 -45 18 -325 18 -417 -1z m324 -82 c116 -20 197 -18
393 10 36 5 68 10 73 10 19 0 3 -35 -32 -73 -30 -32 -42 -39 -52 -31 -9 8 -37
9 -84 3 -183 -21 -507 4 -530 42 -4 5 -11 24 -15 41 l-9 31 72 -7 c40 -3 123
-15 184 -26z"/>
<path d="M5180 9381 c0 -6 33 -21 74 -33 l74 -21 -15 -35 c-14 -34 -14 -35 8
-29 13 3 30 1 38 -6 10 -8 15 -9 18 -1 2 6 17 8 33 6 22 -3 30 0 30 11 0 9 -4
19 -10 22 -5 3 -10 13 -10 21 0 10 12 14 43 14 23 0 59 5 81 9 78 19 54 27
-68 23 -109 -4 -200 4 -273 24 -14 4 -23 2 -23 -5z"/>
<path d="M6717 10674 c3 -8 10 -13 15 -12 16 6 14 21 -4 24 -11 1 -15 -3 -11
-12z"/>
</g>
</svg>
