<svg width="48" height="30" viewBox="0 0 48 30" fill="none" xmlns="http://www.w3.org/2000/svg">
<path d="M12 10.1875C13.5996 3.77128 17.6004 0.5625 24 0.5625C33.6 0.5625 34.8 7.78125 39.6 8.98434C42.8004 9.78684 45.6 8.58375 48 5.37497C46.4004 11.7912 42.3996 15 36 15C26.4 15 25.2 7.78125 20.4 6.57816C17.1996 5.77566 14.4 6.97875 12 10.1875ZM0 24.625C1.59956 18.2088 5.60044 15 12 15C21.6 15 22.8 22.2188 27.6 23.4218C30.8004 24.2243 33.6 23.0213 36 19.8125C34.4004 26.2287 30.3996 29.4375 24 29.4375C14.4 29.4375 13.2 22.2188 8.4 21.0157C5.19956 20.2132 2.4 21.4162 0 24.625Z" fill="#00DF5E"/>
</svg>
